<svg id="Capa_1" enable-background="new 0 0 497 497" height="512" viewBox="0 0 497 497" width="512" xmlns="http://www.w3.org/2000/svg"><path d="m354.036 423 140.506 72.042c1.507-1.372 2.459-3.343 2.459-5.542v-482c0-2.198-.952-4.17-2.459-5.542l-140.506 72.042-140.506-71.803c-1.357 1.357-2.197 3.232-2.197 5.303v482c0 2.071.839 3.946 2.197 5.303z" fill="#7b7c9b"/><path d="m392.5 104 102.041-102.041c-1.332-1.213-3.097-1.959-5.041-1.959h-270.667c-2.071 0-3.946.839-5.303 2.197l101.803 101.803z" fill="#9b9bb0"/><path d="m489.5 497c1.944 0 3.709-.746 5.041-1.958l-102.041-102.042h-77.166l-101.804 101.803c1.357 1.357 3.232 2.197 5.303 2.197z" fill="#616281"/><path d="m437 467-105-218.5 105-218.5h30v437z" fill="#78d0ff"/><path d="m241.333 467v-437h195.667v180l-30 61.255 30 61.256v134.489h-30.001l-18.916-15-18.917 15h-30l-18.916-15-18.917 15z" fill="#bce8ff"/><path d="m407 180h-30l30 152.511c0 8.28 6.71 14.5 15 14.5 8.28 0 15-6.22 15-14.5v-122.511c0-16.5-13.5-30-30-30z" fill="#3a9dd9"/><path d="m301.333 180h30l-30 152.011c0 8.28-6.72 15-15 15s-15-6.72-15-15v-122.011c0-16.5 13.5-30 30-30z" fill="#78d0ff"/><path d="m377 180h-45.667c-16.5 0-30 13.5-30 30v257h37.833v-134.989h30v134.989h37.833l.001-257c0-16.5-13.5-30-30-30z" fill="#35b9ff"/><path d="m135.667 180h-30l30 152.511c0 8.28 6.71 14.5 15 14.5 8.28 0 15-6.22 15-14.5v-122.511c0-16.5-13.5-30-30-30z" fill="#ffbb54"/><path d="m30 180h30l-30 152.011c0 8.28-6.72 15-15 15s-15-6.72-15-15v-122.011c0-16.5 13.5-30 30-30z" fill="#ffeab0"/><path d="m135.667 210c0-16.5-13.5-30-30-30h-45.667c-16.5 0-30 13.5-30 30v268.083c0 10.448 8.469 18.917 18.917 18.917 10.447 0 18.917-8.469 18.917-18.916v-146.073h30v146.073c0 10.447 8.469 18.916 18.917 18.916 10.447 0 18.916-8.469 18.916-18.916z" fill="#ffd45a"/><path d="m83.162 60v90c24.853 0 45-20.147 45-45s-20.147-45-45-45z" fill="#ffbb54"/><path d="m98.162 105c0-24.853-6.716-45-15-45-24.853 0-45 20.147-45 45s20.147 45 45 45c8.285 0 15-20.147 15-45z" fill="#ffd45a"/><path d="m399.496 150h-30l-30-45 30-45h30z" fill="#3a9dd9"/><path d="m309.496 60h60v90h-60z" fill="#35b9ff"/></svg>