<svg height="512" viewBox="0 0 512 512" width="512" xmlns="http://www.w3.org/2000/svg"><path d="m472 24h-448v32h224v112a8 8 0 0 0 16 0v-112h208a16 16 0 0 0 0-32z" fill="#a98e72"/><path d="m256 160a7.971 7.971 0 0 1 -5.656-2.344l-4.688-4.687a30.437 30.437 0 0 0 -21.656-8.969 8 8 0 0 1 0-16 46.329 46.329 0 0 1 32.969 13.656l4.687 4.688a8 8 0 0 1 -5.656 13.656z" fill="#8e7760"/><path d="m256 152a55.963 55.963 0 0 0 -8 .662v15.338a8 8 0 0 0 16 0v-15.338a55.963 55.963 0 0 0 -8-.662z" fill="#8e7760"/><path d="m160 97.195h32a32 32 0 0 1 32 32v16a0 0 0 0 1 0 0h-32a32 32 0 0 1 -32-32v-16a0 0 0 0 1 0 0z" fill="#83bd93" transform="matrix(-1 0 0 -1 384 242.39)"/><rect fill="#fdb62f" height="32" rx="16" transform="matrix(.812 .584 -.584 .812 213.139 38.722)" width="48" x="22.496" y="334.022"/><path d="m27.8 384a8 8 0 0 1 -6.488-12.672l37.371-51.953a8 8 0 0 1 12.992 9.344l-37.37 51.953a8 8 0 0 1 -6.505 3.328z" fill="#ec9e15"/><rect fill="#fdb62f" height="32" rx="16" transform="matrix(.707 .707 -.707 .707 443.314 -174.254)" width="48" x="408" y="432"/><path d="m409.371 478.625a8 8 0 0 1 -5.656-13.656l45.258-45.25a8 8 0 0 1 11.312 11.312l-45.258 45.25a7.971 7.971 0 0 1 -5.656 2.344z" fill="#ec9e15"/><rect fill="#fdb62f" height="32" rx="16" transform="matrix(.707 -.707 .707 .707 -289.637 194.01)" width="48" x="65.373" y="430.627"/><path d="m112 477.258a7.971 7.971 0 0 1 -5.656-2.344l-45.254-45.258a8 8 0 0 1 11.31-11.312l45.256 45.256a8 8 0 0 1 -5.656 13.658z" fill="#ec9e15"/><rect fill="#fdb62f" height="32" rx="16" transform="matrix(.645 -.764 .764 .645 21.7 333.69)" width="48" x="345.874" y="127.497"/><path d="m394.328 172.133a7.981 7.981 0 0 1 -5.156-1.883l-48.918-41.266a8 8 0 0 1 10.32-12.234l48.918 41.266a8 8 0 0 1 -5.164 14.117z" fill="#ec9e15"/><circle cx="472" cy="40" fill="#8e7760" r="16"/><path d="m112 184h16v16h-16z" fill="#d38e14"/><path d="m88 240h16v16h-16z" fill="#fdb62f"/><path d="m40 208h16v16h-16z" fill="#d38e14"/><path d="m448 280h16v16h-16z" fill="#fdb62f"/><path d="m416 248h16v16h-16z" fill="#d38e14"/><path d="m309.681 448a56.021 56.021 0 0 1 -107.362 0l21.681-8 70.979-1.373z" fill="#ec9e15"/><path d="m202.319 208a56.021 56.021 0 0 1 107.362 0l-19.924 9.86-65.757-1.86z" fill="#ec9e15"/><path d="m316.268 448h-120.536a35.732 35.732 0 0 1 -35.732-35.732v-20.268h1.988l186.3-.493 3.712.493v20.268a35.732 35.732 0 0 1 -35.732 35.732z" fill="#fdb62f"/><path d="m340.268 400h-168.536a35.732 35.732 0 0 1 -35.732-35.732v-12.268l16-8 208-.857 16 8.857v12.268a35.732 35.732 0 0 1 -35.732 35.732z" fill="#ec9e15"/><path d="m195.732 208h120.536a35.732 35.732 0 0 1 35.732 35.732v20.268l-3.71.5-184.558-.5h-3.732v-20.268a35.732 35.732 0 0 1 35.732-35.732z" fill="#fdb62f"/><path d="m171.732 256h168.536a35.732 35.732 0 0 1 35.732 35.732v12.268l-24.012 8.858-199.765-.858-16.223-8v-12.268a35.732 35.732 0 0 1 35.732-35.732z" fill="#ec9e15"/><rect fill="#fdb62f" height="48" rx="24" transform="matrix(-1 0 0 -1 512 656)" width="288" x="112" y="304"/><circle cx="256" cy="328" fill="#d38e14" r="56"/><circle cx="256" cy="328" fill="#c48412" r="48"/></svg>