<?xml version="1.0" encoding="iso-8859-1"?>
<!-- Generator: Adobe Illustrator 19.0.0, SVG Export Plug-In . SVG Version: 6.00 Build 0)  -->
<svg version="1.1" id="Capa_1" xmlns="http://www.w3.org/2000/svg" xmlns:xlink="http://www.w3.org/1999/xlink" x="0px" y="0px"
	 viewBox="0 0 464 464" style="enable-background:new 0 0 464 464;" xml:space="preserve">
<path style="fill:#FFE477;" d="M448,44H176c-8.826,0.026-15.974,7.174-16,16v80h128c8.837,0,16,7.163,16,16v112h48l56,56v-56h40
	c8.826-0.026,15.974-7.174,16-16V60C463.974,51.174,456.826,44.026,448,44z"/>
<path style="fill:#00DDC2;" d="M288,140H16c-8.837,0-16,7.163-16,16v192c0,8.837,7.163,16,16,16h40v56l56-56h176
	c8.837,0,16-7.163,16-16V156C304,147.163,296.837,140,288,140z"/>
<g>
	<path style="fill:#FFFFFF;" d="M40,196h16v16H40V196z"/>
	<path style="fill:#FFFFFF;" d="M72,196h192v16H72V196z"/>
	<path style="fill:#FFFFFF;" d="M40,244h224v16H40V244z"/>
	<path style="fill:#FFFFFF;" d="M40,292h224v16H40V292z"/>
	<path style="fill:#FFFFFF;" d="M232,84h192v16H232V84z"/>
	<path style="fill:#FFFFFF;" d="M328,132h96v16h-96V132z"/>
	<path style="fill:#FFFFFF;" d="M328,180h96v16h-96V180z"/>
	<path style="fill:#FFFFFF;" d="M200,84h16v16h-16V84z"/>
</g>
<g>
</g>
<g>
</g>
<g>
</g>
<g>
</g>
<g>
</g>
<g>
</g>
<g>
</g>
<g>
</g>
<g>
</g>
<g>
</g>
<g>
</g>
<g>
</g>
<g>
</g>
<g>
</g>
<g>
</g>
</svg>
