<svg height="512" viewBox="0 0 512 512" width="512" xmlns="http://www.w3.org/2000/svg"><path d="m445.608 323.013-93.608-11.013v-72h-96v72l-74.369 12.4c-1.923.32-3.757.935-5.631 1.425v170.175h312v-125.316a48 48 0 0 0 -42.392-47.671z" fill="#fec9a3"/><path d="m304 312a71.644 71.644 0 0 0 48-18.442v-53.558h-96v53.558a71.644 71.644 0 0 0 48 18.442z" fill="#feb784"/><path d="m488 370.68v69.32h-56v56h-256v-56l-19.48 19.48-15.02 18.02c-11.5 10-19.5 10.5-30.18 10.5h-7.06a40.259 40.259 0 0 1 -29.58-67.57l23.1-25.03 47.35-51.29a64.03 64.03 0 0 1 36.5-19.72l74.37-12.39 48 112 48-112 93.61 11.01a48.02 48.02 0 0 1 42.39 47.67z" fill="#49648e"/><path d="m432 440h56v56h-56z" fill="#fec9a3"/><path d="m488 370.68v69.32h-56v56h-218.39c84.83-19.24 197.28-63.88 250.6-166.76a47.967 47.967 0 0 1 23.79 41.44z" fill="#425b82"/><path d="m352 312-48 112-48-112-48 8v176h192v-178.353z" fill="#d0d24b"/><path d="m208 496v-176l-26.369 4.4c-1.923.32-3.757.935-5.631 1.425v170.175" fill="#ebebe9"/><path d="m432 496v-174.588l-32-3.765v178.353" fill="#ebebe9"/><path d="m176 416v24 56h32v-112z" fill="#e0e0de"/><path d="m400 416v24 56h32v-112z" fill="#e0e0de"/><path d="m167.081 444.015-22.835-98.949-46.462 50.334-23.107 25.034a40.259 40.259 0 0 0 29.582 67.566h7.065c10.676 0 18.676-.5 30.176-10.5l15.021-18.022 11.259-11.258a36.1 36.1 0 0 0 -.699-4.205z" fill="#425b82"/><path d="m384 168h-8v48h8a24 24 0 0 0 0-48z" fill="#feb784"/><path d="m224.4 168h-.4a24 24 0 0 0 0 48h8v-48z" fill="#feb784"/><path d="m376 160v56a72 72 0 1 1 -144 0v-56a72.009 72.009 0 0 1 69.65-71.96c.78-.03 1.56-.04 2.35-.04a72.006 72.006 0 0 1 72 72z" fill="#fec9a3"/><path d="m376 160v56a72.047 72.047 0 0 1 -85.62 70.71 87.992 87.992 0 0 0 48.62-78.71v-48a88.081 88.081 0 0 0 -37.35-71.96c.78-.03 1.56-.04 2.35-.04a72.006 72.006 0 0 1 72 72z" fill="#fec093"/><path d="m376 160a72.063 72.063 0 0 0 -1.846-16h-140.308a72.063 72.063 0 0 0 -1.846 16v18.855l72 5.145 72-5.143z" fill="#fec093"/><path d="m268 168a12 12 0 1 0 12 12 12.013 12.013 0 0 0 -12-12z" fill="#7a432a"/><path d="m340 168a12 12 0 1 0 12 12 12.013 12.013 0 0 0 -12-12z" fill="#7a432a"/><path d="m294.891 240h-14.891v-16h14.891c10.953 0 21.547-2.52 29.078-6.91l8.062 13.82c-10.054 5.867-23.242 9.09-37.14 9.09z" fill="#f7a468"/><path d="m392 123.9v28.1h-176v-28.1a83.909 83.909 0 0 1 83.9-83.9h8.2a83.922 83.922 0 0 1 83.9 83.9z" fill="#ffb531"/><path d="m392 123.9v28.1h-146.95c42.75-23.16 81.7-51.63 117.11-92.25a83.685 83.685 0 0 1 29.84 64.15z" fill="#ffa912"/><path d="m400.61 161.1-96.61 6.9-96.61-6.9a16.571 16.571 0 0 1 -15.39-16.529 16.571 16.571 0 0 1 16.571-16.571h190.858a16.571 16.571 0 0 1 16.571 16.571 16.571 16.571 0 0 1 -15.39 16.529z" fill="#ffb531"/><g fill="#ffcb73"><path d="m328 96h-48v-48a24 24 0 0 1 24-24 24 24 0 0 1 24 24z"/><path d="m256 104v-51.5a84.269 84.269 0 0 0 -16 12.706v38.794z"/><path d="m368 104v-38.792a84.269 84.269 0 0 0 -16-12.708v51.5z"/></g><path d="m331.429 360h-54.858l27.429 64z" fill="#49648e"/><path d="m208 440h96v32h-96z" fill="#ebebe9"/><path d="m304 440h96v32h-96z" fill="#ebebe9"/><path d="m336 400h64v40h-64z" fill="#b0b0ae"/><path d="m296 416h16v80h-16z" fill="#bec134"/><path d="m336.667 472h63.333v-32h-31.333z" fill="#e0e0de"/><path d="m352 440h48v-40h-8z" fill="#a3a3a1"/><path d="m116.09 496h-20.09a32 32 0 0 1 -32-32v-128h64l23.08 116.015a35.916 35.916 0 0 1 .92 8.075 35.911 35.911 0 0 1 -35.91 35.91z" fill="#fec093"/><path d="m128 456h-40v-200l-8-24v-56h56v56l-8 24z" fill="#95573a"/><path d="m24 80h176v112h-176z" fill="#d6d6d4"/><path d="m200 160h-40l-16 32h-64l-16-32h-40v-48h40l16-32h64l16 32h40z" fill="#e0e0de"/><rect fill="#fec9a3" height="80" rx="16" width="80" x="64" y="272"/><path d="m128 272h-32a16 16 0 0 1 16 16v48a16 16 0 0 1 -16 16h32a16 16 0 0 0 16-16v-48a16 16 0 0 0 -16-16z" fill="#fec093"/><path d="m80 192h56v16h-56z" fill="#82462a"/><path d="m432 440h56v24h-56z" fill="#feb784"/></svg>