<svg width="727" height="659" viewBox="0 0 727 659" fill="none" xmlns="http://www.w3.org/2000/svg">
<path opacity="0.1" d="M127.88 658.9C193.536 658.9 246.76 649.744 246.76 638.45C246.76 627.156 193.536 618 127.88 618C62.2244 618 9 627.156 9 638.45C9 649.744 62.2244 658.9 127.88 658.9Z" fill="#03D1AF"/>
<path opacity="0.1" d="M427.5 659C499.573 659 558 648.926 558 636.5C558 624.074 499.573 614 427.5 614C355.427 614 297 624.074 297 636.5C297 648.926 355.427 659 427.5 659Z" fill="#03D1AF"/>
<path d="M82.0231 107.128C99.1421 107.128 113.02 93.2502 113.02 76.1311C113.02 59.0121 99.1421 45.1344 82.0231 45.1344C64.9041 45.1344 51.0264 59.0121 51.0264 76.1311C51.0264 93.2502 64.9041 107.128 82.0231 107.128Z" fill="#2F2E41"/>
<path d="M60.143 94.7697C60.143 94.7697 62.5742 120.702 56.9016 127.995C51.2289 135.288 60.5482 149.47 60.5482 149.47L77.566 169.729L102.688 158.384L106.334 137.314L103.903 122.728C103.903 122.728 95.3943 114.219 99.0409 98.8216C102.688 83.4245 60.143 94.7697 60.143 94.7697Z" fill="#FFB9B9"/>
<path opacity="0.1" d="M60.143 94.7697C60.143 94.7697 62.5742 120.702 56.9016 127.995C51.2289 135.288 60.5482 149.47 60.5482 149.47L77.566 169.729L102.688 158.384L106.334 137.314L103.903 122.728C103.903 122.728 95.3943 114.219 99.0409 98.8216C102.688 83.4245 60.143 94.7697 60.143 94.7697Z" fill="black"/>
<path d="M74.73 579.778V596.39L97.015 600.847L94.989 573.295L74.73 579.778Z" fill="#FFB9B9"/>
<path d="M141.586 573.295L136.723 596.39L146.448 603.278L163.466 590.718L161.44 570.863L141.586 573.295Z" fill="#FFB9B9"/>
<path d="M99.0411 598.821C99.0411 598.821 90.5322 584.439 74.7299 593.453C74.7299 593.453 71.8936 609.356 69.0573 610.572C66.221 611.787 50.4188 634.883 69.0573 636.909C87.6959 638.935 97.0152 632.857 97.0152 632.857C97.0152 632.857 93.3685 635.995 99.0411 634.374C104.714 632.753 102.283 623.839 102.283 623.839L99.0411 598.821Z" fill="#2F2E41"/>
<path d="M154.552 589.097C154.552 589.097 141.991 598.011 139.965 593.959C137.939 589.907 134.697 590.312 134.697 590.312C134.697 590.312 123.352 633.081 130.646 635.106C135.342 636.263 140.275 636.008 144.827 634.374C144.827 634.374 154.552 627.564 154.552 632.831C154.552 638.098 181.699 637.719 193.044 637.314C204.389 636.909 198.312 628.4 198.312 628.4L183.32 613.813L166.302 589.097C166.302 589.097 158.603 582.209 154.552 589.097Z" fill="#2F2E41"/>
<path d="M35.0215 318.027L52.0393 481.317C52.0393 481.317 61.3586 580.993 62.9793 582.614C64.6 584.235 75.1349 589.502 98.2305 582.614L92.9631 452.144L102.688 371.107L124.973 427.022C124.973 427.022 130.24 577.346 133.887 577.346C137.534 577.346 159.819 584.64 165.086 575.726C170.354 566.812 169.543 470.782 169.543 470.782C169.543 470.782 167.112 319.243 149.284 314.381C131.456 309.518 35.0215 318.027 35.0215 318.027Z" fill="#2F2E41"/>
<path d="M82.0233 109.762C97.464 109.762 109.981 97.2445 109.981 81.8038C109.981 66.3631 97.464 53.8459 82.0233 53.8459C66.5826 53.8459 54.0654 66.3631 54.0654 81.8038C54.0654 97.2445 66.5826 109.762 82.0233 109.762Z" fill="#FFB9B9"/>
<path d="M83.6439 159.6C83.6439 159.6 80.8075 142.177 80.8075 138.935C80.8075 135.694 68.2468 133.668 68.2468 133.668C68.2468 133.668 58.5223 122.728 56.4964 124.348C54.4705 125.969 23.6763 146.634 18.8141 149.47C13.9518 152.306 8.68443 164.462 9.08962 165.272C9.49481 166.083 34.6164 218.757 34.6164 218.757C34.6164 218.757 45.5563 251.172 37.8578 268.189C30.1593 285.207 20.4348 318.838 34.6164 325.726C48.7979 332.614 117.68 347.606 130.24 334.64C142.801 321.674 151.715 318.027 154.957 318.027C158.198 318.027 141.585 261.706 145.232 256.439C148.879 251.172 143.611 218.352 143.611 218.352L162.25 166.083C162.25 166.083 160.629 136.909 123.757 130.426L101.699 119.731L83.6439 159.6Z" fill="#03D1AF"/>
<path d="M7.87396 325.321C7.87396 325.321 5.84803 344.77 5.84803 350.442C5.84803 356.115 -3.87645 389.34 10.305 393.392C24.4865 397.444 23.271 349.227 23.271 349.227V324.51L7.87396 325.321Z" fill="#FFB9B9"/>
<path d="M176.026 307.087C176.026 307.087 178.458 325.726 177.242 329.778C176.026 333.83 188.992 369.081 171.569 371.107C154.146 373.133 158.603 328.967 158.603 328.967V307.087L176.026 307.087Z" fill="#FFB9B9"/>
<path d="M15.1675 160.41L9.08968 165.272C9.08968 165.272 0.985943 294.121 3.01187 303.846C5.0378 313.57 -4.28148 327.347 3.82225 328.562C11.926 329.778 21.6505 335.045 26.1075 331.804C30.5645 328.562 31.3749 316.812 32.9957 313.975C34.6164 311.139 37.4527 277.509 37.4527 277.509C37.4527 277.509 45.9616 243.878 40.6941 218.757C35.4267 193.635 30.5645 168.108 30.5645 168.108L15.1675 160.41Z" fill="#03D1AF"/>
<path d="M143.611 150.28L162.25 166.083L176.431 248.741C176.431 248.741 185.346 313.165 178.457 313.976C171.569 314.786 161.034 312.76 156.577 313.976C152.12 315.191 148.474 311.95 148.474 311.95C148.474 311.95 143.611 286.018 143.611 285.612C143.611 285.207 140.37 255.629 140.37 255.629L136.318 222.403L142.396 185.937L143.611 150.28Z" fill="#03D1AF"/>
<path d="M60.5594 64.7432C60.5594 64.7432 54.2309 48.2892 63.4072 42.91L65.9386 50.1878C65.9386 50.1878 89.0374 36.2652 95.0495 39.4294L89.3538 47.0235C89.3538 47.0235 116.25 47.0235 118.148 57.4655L108.656 57.782C108.656 57.782 118.781 64.4268 119.098 75.1852L98.8466 76.4509L108.656 82.1465C108.656 82.1465 71.9507 87.2093 63.0908 72.6538L60.5594 64.7432Z" fill="#2F2E41"/>
<path d="M55.0784 65.3937C55.0784 65.3937 62.3717 79.9803 72.0962 76.3336C81.8207 72.6869 72.0962 59.3158 72.0962 59.3158L65.6132 56.0743L55.0784 65.3937Z" fill="#2F2E41"/>
<path d="M519.674 133.198C540.265 133.198 556.957 116.506 556.957 95.9146C556.957 75.3234 540.265 58.631 519.674 58.631C499.083 58.631 482.39 75.3234 482.39 95.9146C482.39 116.506 499.083 133.198 519.674 133.198Z" fill="#F2F2F2"/>
<path d="M286.385 262.044L274.977 275.246L313.41 308.455L324.818 295.253L286.385 262.044Z" fill="#57B894"/>
<path d="M533.446 498.145L522.038 511.347L556.105 540.783L567.513 527.581L533.446 498.145Z" fill="#14B398"/>
<path d="M595 399.81V400.834C594.977 403.405 594.903 405.964 594.779 408.511C592.562 452.107 573.754 493.204 542.212 523.38C510.669 553.556 468.78 570.526 425.128 570.811C381.477 571.097 339.369 554.677 307.434 524.916C275.499 495.155 256.156 454.308 253.368 410.744C253.136 407.127 253.019 403.482 253.019 399.81C252.958 364.395 263.949 329.844 284.461 300.973C286.101 298.647 287.807 296.363 289.579 294.122C290.8 292.563 292.056 291.04 293.324 289.527C322.189 255.332 363.306 233.812 407.855 229.585C452.404 225.357 496.836 238.759 531.617 266.915C533.676 268.578 535.7 270.3 537.677 272.056C539.259 273.464 540.814 274.902 542.342 276.372C572.429 305.151 590.948 343.943 594.407 385.433C594.802 390.179 595 394.971 595 399.81Z" fill="#3F3D56"/>
<path d="M424.01 592.32C317.86 592.32 231.5 505.96 231.5 399.81C231.437 351.244 249.793 304.461 282.866 268.895L287.129 272.852C255.056 307.342 237.255 352.712 237.316 399.81C237.316 502.754 321.066 586.504 424.01 586.504C449.022 586.589 473.793 581.606 496.827 571.857C519.862 562.108 540.683 547.794 558.035 529.779L562.211 533.827C544.318 552.404 522.848 567.163 499.096 577.216C475.344 587.269 449.801 592.407 424.01 592.32Z" fill="#14B398"/>
<path d="M440.926 588.249H414.072C407.997 588.249 403.072 593.174 403.072 599.249V626.103C403.072 632.178 407.997 637.103 414.072 637.103H440.926C447.002 637.103 451.926 632.178 451.926 626.103V599.249C451.926 593.174 447.002 588.249 440.926 588.249Z" fill="#14B398"/>
<path d="M289.579 294.122C289.662 294.157 289.741 294.204 289.811 294.262C290.73 295.018 289.579 296.472 289.718 297.67C289.881 299.205 291.928 299.543 293.475 299.694C295.022 299.857 296.977 301.101 296.244 302.474C292.359 303.811 288.427 302.497 284.461 300.973C263.949 329.844 252.958 364.395 253.019 399.81C253.019 403.486 253.136 407.131 253.368 410.744C253.694 410.982 254.05 411.174 254.427 411.314C255.59 411.756 256.939 411.675 258.009 412.303C258.859 412.803 259.429 413.687 260.278 414.153C262.709 415.479 266.082 412.931 268.35 414.513C268.937 415.047 269.492 415.614 270.014 416.212C272.107 418.026 275.551 416.805 277.97 418.166C279.529 419.038 280.331 420.783 281.169 422.365C283.251 426.32 286.624 430.205 291.079 430.519C292.484 430.454 293.892 430.501 295.29 430.658C296.663 430.973 298.012 432.171 297.791 433.555C297.407 435.939 298.582 438.545 298.268 440.93C297.698 445.292 291.521 447.199 290.998 451.561C290.996 452.521 290.942 453.48 290.835 454.434C290.556 455.574 289.695 456.505 289.393 457.645C288.811 459.797 290.358 461.949 292.045 463.391C293.743 464.845 295.767 466.101 296.697 468.125C297.675 470.277 297.198 472.778 297.512 475.116C298.21 480.222 302.618 484.003 307.155 486.445C308.608 487.053 309.899 487.993 310.923 489.191C312.087 490.877 311.97 493.099 312.366 495.111C313.32 500.032 317.461 504.091 317.577 509.105C317.658 512.676 315.681 515.909 314.494 519.271C313.274 522.795 312.911 526.559 313.436 530.252C320.068 535.877 327.118 540.99 334.525 545.548C334.928 544.952 335.223 544.291 335.397 543.594C335.538 542.822 335.441 542.027 335.119 541.312C334.797 540.597 334.265 539.998 333.594 539.592C334.844 539.12 335.982 538.391 336.933 537.452C337.4 536.971 337.708 536.359 337.817 535.697C337.925 535.036 337.827 534.357 337.537 533.753C339.585 534.009 342.016 534.137 343.365 532.566C344.447 531.31 344.377 529.426 343.947 527.832C343.356 526.283 342.965 524.665 342.783 523.016C347.527 523.247 352.281 523.088 356.998 522.54C356.315 520.239 354.763 518.294 352.671 517.119C354.811 516.758 356.753 514.199 357.428 512.141C358.012 510.04 358.044 507.825 357.521 505.708C357.359 505.164 357.335 504.589 357.451 504.033C357.796 503.295 358.4 502.711 359.15 502.393C362.686 500.357 366.222 498.326 369.758 496.298C370.389 495.98 370.963 495.559 371.456 495.053C372.561 493.739 372.398 491.773 371.829 490.156C371.259 488.539 370.351 487.015 370.13 485.317C369.479 480.234 374.923 476.582 376.761 471.789C377.385 469.876 377.722 467.881 377.761 465.869C377.912 463.705 377.924 461.204 376.272 459.82C374.678 458.482 372.201 458.785 370.537 457.54C369.014 456.4 368.49 454.202 366.827 453.283C365.315 452.445 363.43 452.98 361.744 452.585C358.789 451.898 356.928 448.49 353.904 448.176C352.205 447.99 350.274 448.828 348.879 447.839C347.646 446.955 347.599 445.198 347.366 443.71C346.953 441.39 345.84 439.253 344.177 437.586C342.513 435.918 340.379 434.799 338.061 434.381C336.304 434.102 334.397 434.206 332.896 433.241C331.384 432.264 330.698 430.437 329.5 429.076C327.592 426.901 324.568 426.122 321.741 425.459C317.903 424.563 314.068 423.664 310.237 422.76C308.202 422.272 305.573 422.016 304.468 423.807C304.141 424.488 303.913 425.213 303.793 425.959C303.378 427.302 302.549 428.479 301.425 429.322C300.302 430.166 298.94 430.634 297.535 430.658C296.573 429.016 295.015 427.808 293.185 427.285C291.989 427.084 290.807 426.805 289.649 426.448C289.043 426.151 288.505 425.734 288.066 425.222C287.628 424.711 287.298 424.115 287.098 423.471C286.898 422.828 286.831 422.15 286.901 421.48C286.972 420.81 287.178 420.161 287.508 419.573C288.168 418.393 288.422 417.028 288.23 415.69C288.039 414.351 287.413 413.112 286.45 412.164C284.496 410.407 281.669 409.977 279.04 410.151C278.354 408.651 279.505 406.964 280.738 405.871C281.983 404.789 283.484 403.719 283.751 402.09C284.181 399.531 280.913 397.589 278.435 398.345C275.958 399.112 274.376 401.52 273.329 403.893C272.821 405.293 272.129 406.62 271.27 407.836C270.83 408.439 270.232 408.907 269.542 409.19C268.852 409.474 268.098 409.561 267.362 409.442C265.314 408.918 264.535 406.487 264.081 404.44C263.354 401.704 262.987 398.884 262.988 396.053C263.006 393.194 264.141 390.455 266.152 388.423C269.537 385.305 274.748 385.608 279.319 386.108C278.83 385.455 278.595 384.646 278.659 383.832C278.723 383.018 279.082 382.256 279.668 381.688C280.28 381.145 281.015 380.759 281.81 380.564C282.604 380.37 283.435 380.372 284.228 380.571C285.606 380.856 286.848 381.598 287.753 382.676C289.055 384.258 289.428 386.41 290.405 388.202C291.393 390.005 293.603 391.54 295.406 390.575C296.977 389.737 297.221 387.574 296.837 385.84C296.442 384.119 295.616 382.432 295.755 380.664C296.023 377.302 299.524 375.267 302.607 373.883C305.689 372.498 309.214 370.626 309.702 367.276C309.725 366.624 309.85 365.98 310.074 365.368C310.416 364.821 310.892 364.373 311.459 364.065C320.45 358.121 329.604 352.096 339.887 348.851C340.422 348.676 340.48 348.862 341.027 348.734C341.795 348.292 341.283 347.071 340.55 346.582C339.817 346.094 338.84 345.71 338.654 344.849C338.526 344.221 338.899 343.593 338.992 342.953C339.016 342.567 338.945 342.18 338.785 341.828C338.625 341.475 338.382 341.167 338.075 340.93C337.768 340.694 337.409 340.536 337.027 340.471C336.645 340.406 336.253 340.435 335.886 340.557C335.06 339.464 336.688 338.196 338.014 337.823C341.985 336.736 346.06 336.073 350.17 335.846C350.644 335.768 351.131 335.849 351.554 336.079C351.856 336.37 352.036 336.767 352.055 337.186C352.074 337.606 351.933 338.017 351.659 338.335C351.099 338.957 350.48 339.522 349.809 340.022C349.142 340.67 348.665 341.489 348.431 342.39C348.198 343.29 348.216 344.237 348.483 345.128C350.635 346.222 352.962 347.35 355.346 346.966C357.719 346.582 359.824 343.907 358.708 341.778C357.672 339.789 354.544 339.336 354.008 337.16C353.38 334.613 356.986 332.345 356.172 329.856C355.823 328.762 354.73 328.111 353.892 327.331C352.907 326.361 352.236 325.116 351.969 323.759C351.701 322.402 351.848 320.996 352.392 319.724C351.03 319.962 349.631 319.871 348.312 319.458C346.992 319.045 345.791 318.323 344.808 317.351C342.993 315.525 341.55 312.629 338.968 312.722C336.607 312.791 334.571 315.548 332.361 314.711C331.815 314.501 331.245 314.083 330.721 314.327C330.548 314.438 330.403 314.587 330.296 314.762C330.19 314.937 330.124 315.134 330.105 315.339C329.546 318.026 330.512 321.085 329.046 323.411C327.453 325.936 323.765 326.285 321.834 328.564C320.787 329.797 320.38 331.461 319.415 332.764C318.449 334.066 316.414 334.904 315.251 333.764C315.82 332.596 315.976 331.27 315.693 330.001C315.41 328.733 314.704 327.599 313.692 326.785C312.621 326.081 311.463 325.519 310.249 325.11C308.892 324.537 307.601 323.82 306.399 322.969C305.799 322.604 305.312 322.081 304.991 321.457C304.737 320.673 304.77 319.823 305.084 319.061C305.673 317.381 306.709 315.893 308.08 314.758C309.451 313.623 311.106 312.882 312.866 312.617C314.401 312.408 316.193 312.477 317.216 311.303C317.751 310.686 318.031 309.744 318.822 309.5C319.32 309.395 319.839 309.457 320.299 309.674C322.218 310.349 324.126 311.023 326.045 311.698C326.685 311.992 327.392 312.108 328.092 312.035C328.439 311.991 328.756 311.815 328.979 311.545C329.201 311.275 329.313 310.931 329.29 310.581C329.104 309.628 327.639 309.174 327.778 308.208C327.846 307.893 328.013 307.608 328.255 307.394C330.33 305.188 332.866 303.467 335.684 302.355C338.501 301.243 341.529 300.767 344.552 300.962C345.273 302.16 344.133 303.567 343.167 304.579C342.214 305.603 341.446 307.417 342.609 308.197C343.078 308.443 343.603 308.563 344.133 308.546C345.547 308.736 346.922 309.152 348.204 309.779C350.193 310.64 352.147 311.593 354.055 312.617C353.774 311.37 353.822 310.071 354.194 308.848C354.405 308.248 354.831 307.747 355.39 307.444C355.949 307.141 356.601 307.057 357.219 307.208C358.359 307.65 358.94 309.162 360.162 309.302C361.779 309.488 362.418 307.092 361.744 305.603C361.069 304.114 359.72 302.881 359.615 301.241C359.534 300.147 359.952 298.787 359.08 298.123C358.77 297.918 358.415 297.79 358.045 297.751C350.74 296.414 343.431 295.072 336.118 293.727C334.816 293.482 332.943 293.668 332.885 294.983C332.85 295.727 333.513 296.46 333.222 297.135C332.908 297.856 331.884 297.798 331.14 298.054C330.581 298.307 330.119 298.736 329.825 299.276C329.531 299.815 329.421 300.436 329.511 301.043C329.71 302.253 330.179 303.402 330.884 304.405C329.453 303.812 327.301 303.707 325.871 303.102C325.663 301.445 325.24 299.823 324.614 298.275C324.579 298.028 324.489 297.793 324.353 297.585C324.216 297.377 324.035 297.201 323.824 297.07C323.612 296.939 323.374 296.856 323.127 296.827C322.88 296.798 322.629 296.824 322.393 296.902C320.508 297.193 318.624 297.472 316.739 297.763C316.266 297.785 315.813 297.961 315.448 298.263C314.716 299.042 315.437 300.287 315.413 301.357C315.345 301.956 315.093 302.518 314.69 302.966C314.288 303.414 313.756 303.726 313.168 303.858C311.985 304.098 310.763 304.083 309.586 303.812C306.945 303.404 304.317 302.997 301.676 302.59C304.007 301.847 306.08 300.46 307.655 298.589C308.702 297.356 309.26 295.053 307.748 294.471C307.301 294.348 306.835 294.313 306.375 294.366C302.793 294.39 299.966 291.4 296.616 290.132C295.563 289.739 294.449 289.535 293.324 289.527L289.579 294.122Z" fill="#C3FFED"/>
<path d="M594.779 408.511C594.369 409.062 593.83 409.503 593.209 409.797C592.589 410.091 591.906 410.229 591.22 410.198C587.579 409.884 586.043 404.638 582.438 404.044C582.119 403.963 581.781 403.996 581.484 404.137C580.949 404.428 580.856 405.149 580.821 405.754C580.67 408.755 580.542 411.873 581.716 414.641C583.426 418.689 587.858 422.086 586.928 426.378C581.926 424.063 579.32 418.445 578.145 413.059C576.959 407.674 576.773 402.02 574.656 396.926C573.039 398.984 569.666 397.286 568.2 395.123C566.804 393.075 565.943 390.702 564.594 388.62C563.245 386.55 561.174 384.689 558.708 384.572C556.114 384.456 553.858 386.236 551.88 387.922C550.16 389.193 548.716 390.8 547.635 392.645C546.25 395.437 546.611 398.717 546.541 401.823C546.471 405.173 545.762 408.72 543.47 411.186C541.179 413.641 536.956 414.501 534.432 412.28C533.212 411.007 532.342 409.44 531.908 407.732C529.164 399.734 526.88 391.586 525.069 383.328C524.65 385.212 522.986 387.643 521.404 386.538C521.051 386.237 520.765 385.865 520.567 385.445C517.612 380.455 512.157 377.454 506.632 375.651C501.118 373.859 495.314 373.022 489.859 371.044C486.799 369.933 483.876 368.478 481.146 366.706C480.453 367.727 480.048 368.917 479.974 370.149C479.9 371.382 480.161 372.611 480.727 373.708C481.34 374.781 482.291 375.622 483.431 376.099C484.571 376.577 485.837 376.664 487.032 376.349C488.242 375.953 489.265 375.116 490.463 374.697C491.661 374.29 493.278 374.487 493.802 375.651C494.314 376.756 493.546 378.093 493.93 379.257C494.5 381.013 497.163 381.152 498.094 382.758C498.367 383.393 498.43 384.1 498.273 384.774C498.116 385.448 497.748 386.054 497.222 386.503C496.151 387.376 494.97 388.104 493.709 388.667C489.8 390.842 487.02 394.553 483.6 397.437C480.181 400.334 475.353 402.439 471.282 400.59C472.248 395.669 466.397 392.063 465.315 387.166C464.954 385.549 465.141 383.84 464.64 382.269C463.908 379.989 461.884 378.431 460.232 376.709C458.225 374.596 456.661 372.102 455.633 369.375C454.604 366.649 454.131 363.744 454.241 360.831C454.334 358.807 454.707 356.749 454.241 354.771C453.788 352.805 452.148 350.898 450.124 350.979C445.506 351.189 439.678 351.537 437.259 347.594C436.386 346.187 436.014 344.128 437.27 343.046C437.761 342.735 438.309 342.524 438.882 342.426C439.455 342.329 440.042 342.345 440.609 342.476C444.087 342.813 447.553 343.162 451.031 343.5C453.462 343.732 456.091 343.93 458.185 342.662C460.278 341.394 461.186 338.009 459.243 336.509C457.836 335.416 455.3 335.474 454.881 333.741C454.544 332.287 456.149 330.646 455.277 329.425C454.66 328.564 453.264 328.797 452.415 329.448C451.674 330.218 450.869 330.922 450.007 331.554C448.344 332.414 446.366 331.589 444.575 331.03C442.784 330.472 440.388 330.425 439.527 332.089C438.55 333.938 440.376 336.381 439.422 338.242C438.143 340.696 433.839 339.301 432.047 341.418C430 343.837 433.443 347.466 432.757 350.56C431.873 350.999 430.891 351.2 429.906 351.145C428.922 351.09 427.968 350.78 427.139 350.246C426.325 349.693 425.676 348.929 425.263 348.035C424.849 347.142 424.685 346.154 424.789 345.175C424.952 343.779 425.685 342.348 425.196 341.034C424.669 340.019 423.8 339.223 422.742 338.789C419.369 336.916 415.995 335.051 412.622 333.194C411.68 334.939 412.866 337.09 414.355 338.405C415.832 339.708 417.694 340.696 418.671 342.418C419.289 343.611 419.429 344.995 419.062 346.288C418.694 347.581 417.847 348.685 416.693 349.374C416.547 349.474 416.381 349.542 416.206 349.572C416.032 349.602 415.853 349.594 415.681 349.548C415.52 349.454 415.379 349.328 415.267 349.178C415.156 349.028 415.075 348.857 415.03 348.676C413.25 344.105 410.563 339.603 406.283 337.218C401.99 334.822 395.837 335.322 393.022 339.335C392.359 340.289 391.905 341.383 391.324 342.395C388.241 347.757 381.611 350.293 375.423 350.13C374.818 350.169 374.214 350.027 373.69 349.723C372.689 349.036 372.736 347.571 372.887 346.361C373.108 344.651 373.317 342.953 373.538 341.243C373.544 340.199 373.947 339.196 374.667 338.44C375.818 337.532 377.47 338.102 378.936 338.079C380.042 338.03 381.106 337.64 381.982 336.964C382.859 336.287 383.505 335.356 383.833 334.299C384.128 333.231 384.125 332.104 383.826 331.038C383.527 329.972 382.942 329.008 382.135 328.25C381.472 327.622 380.576 326.831 380.925 325.982C381.067 325.748 381.258 325.548 381.485 325.395C381.712 325.242 381.969 325.141 382.239 325.098C384.856 324.342 387.636 324.144 390.207 323.237C392.789 322.341 395.29 320.503 395.907 317.839C396.093 317.025 396.174 316.036 396.907 315.629C397.277 315.481 397.672 315.402 398.07 315.397C399.469 315.196 400.742 314.48 401.64 313.389C402.537 312.298 402.994 310.91 402.921 309.499C404.154 308.639 405.887 309.278 407.085 310.197C408.272 311.116 409.33 312.326 410.784 312.721C413.494 313.466 416.112 311.058 418.927 311.046C420.113 311.046 421.334 311.465 422.439 311.058C423.568 310.651 424.242 309.534 425.103 308.708C425.976 307.871 427.488 307.371 428.29 308.266C428.058 306.58 427.837 304.905 427.604 303.23C428.974 303.575 430.403 303.623 431.793 303.37C433.184 303.117 434.504 302.569 435.665 301.764C432.734 300.775 429.814 299.787 426.883 298.798C426.575 298.722 426.291 298.57 426.057 298.356C425.417 297.67 426.057 296.599 426.569 295.82C427.813 293.947 428.023 290.865 425.976 289.934C424.58 289.295 422.986 290.062 421.648 290.807C419.508 291.993 417.368 293.191 415.228 294.378C415.03 295.599 416.519 296.297 417.438 297.111C417.998 297.608 418.394 298.263 418.575 298.989C418.756 299.715 418.712 300.479 418.45 301.181C418.188 301.882 417.72 302.487 417.108 302.918C416.495 303.348 415.767 303.582 415.018 303.59C415.44 304.141 415.733 304.778 415.876 305.457C416.019 306.135 416.008 306.837 415.844 307.51C414.413 307.615 412.971 307.72 411.529 307.824C411.289 307.872 411.042 307.872 410.803 307.824C410.563 307.776 410.336 307.681 410.133 307.545C409.668 307.138 409.737 306.417 409.621 305.812C409.429 305.089 409.025 304.44 408.462 303.949C407.898 303.457 407.2 303.146 406.457 303.055C404.975 302.889 403.475 303.027 402.049 303.462C401.428 303.681 400.75 303.664 400.141 303.416C399.796 303.187 399.534 302.852 399.396 302.462C399.143 301.664 399.1 300.815 399.271 299.996C399.443 299.177 399.822 298.415 400.374 297.786C401.491 296.545 402.721 295.412 404.049 294.401C407.059 291.766 409.271 288.341 410.435 284.514C412.808 283.513 415.263 282.164 417.647 281.164C419.564 280.275 421.573 279.601 423.638 279.151C425.581 278.855 427.549 278.761 429.512 278.872C432.187 278.919 434.874 278.965 437.549 279.024C439.938 278.923 442.324 279.266 444.587 280.035C446.785 280.943 448.728 282.909 448.879 285.281C448.925 285.552 448.901 285.83 448.809 286.088C448.717 286.347 448.561 286.577 448.356 286.759C448.047 286.93 447.696 287.01 447.344 286.991C445.122 287.061 444.18 287.62 441.958 287.701C443.365 289.201 444.947 290.783 446.995 291.051C450.601 291.516 453.194 287.782 454.858 284.537C454.917 285.363 455.297 286.133 455.917 286.683C456.536 287.233 457.346 287.519 458.173 287.48C459.064 287.327 459.915 286.994 460.674 286.503C467.828 282.593 475.843 280.522 483.996 280.477C483.916 279.86 484.068 279.235 484.423 278.724C484.777 278.212 485.309 277.851 485.915 277.709C487.579 277.383 489.068 278.814 489.87 280.303C490.661 281.792 491.161 283.513 492.441 284.63C493.709 285.747 496.163 285.689 496.663 284.083C497.152 282.536 495.535 281.21 494.197 280.291C492.848 279.384 491.44 277.697 492.348 276.348C499.187 274.824 506.085 273.312 513.099 273.01C514.291 273.046 515.478 272.84 516.589 272.405C517.139 272.172 517.596 271.764 517.891 271.245C518.185 270.725 518.3 270.123 518.217 269.532C516.687 269.889 515.085 269.783 513.614 269.228C512.144 268.673 510.871 267.694 509.959 266.414C517.159 265.821 524.696 265.298 531.617 266.915L537.678 272.056C536.526 273.254 534.991 274.382 535.828 275.58C536.105 275.856 536.44 276.064 536.808 276.191C537.177 276.318 537.57 276.36 537.957 276.313C539.422 276.337 540.888 276.371 542.342 276.371C572.429 305.15 590.948 343.942 594.407 385.433C591.964 385.34 589.719 388.434 590.033 391.133C590.406 394.262 592.662 396.774 594.279 399.473C594.547 399.912 594.787 400.366 595 400.834L594.779 408.511Z" fill="#C3FFED"/>
<path d="M274.352 80.0253C282.502 80.0253 289.108 73.419 289.108 65.2697C289.108 57.1204 282.502 50.5142 274.352 50.5142C266.203 50.5142 259.597 57.1204 259.597 65.2697C259.597 73.419 266.203 80.0253 274.352 80.0253Z" stroke="#03D1AF" stroke-width="2" stroke-miterlimit="10"/>
<path d="M710.352 361.025C718.502 361.025 725.108 354.419 725.108 346.27C725.108 338.12 718.502 331.514 710.352 331.514C702.203 331.514 695.597 338.12 695.597 346.27C695.597 354.419 702.203 361.025 710.352 361.025Z" stroke="#03D1AF" stroke-width="2" stroke-miterlimit="10"/>
<path d="M609.619 214.025C617.768 214.025 624.374 207.419 624.374 199.27C624.374 191.12 617.768 184.514 609.619 184.514C601.47 184.514 594.863 191.12 594.863 199.27C594.863 207.419 601.47 214.025 609.619 214.025Z" stroke="#03D1AF" stroke-width="2" stroke-miterlimit="10"/>
<path d="M565.999 292.525C578.054 292.525 587.826 282.753 587.826 270.697C587.826 258.642 578.054 248.87 565.999 248.87C553.944 248.87 544.171 258.642 544.171 270.697C544.171 282.753 553.944 292.525 565.999 292.525Z" fill="white"/>
<path d="M352.267 201.776C344.083 201.735 336.217 204.946 330.401 210.704C324.584 216.462 321.293 224.295 321.251 232.479C321.165 249.523 351.741 305.645 351.741 305.645C351.741 305.645 382.884 249.836 382.971 232.792C383.012 224.608 379.801 216.742 374.043 210.925C368.285 205.109 360.452 201.818 352.267 201.776V201.776ZM352.035 247.689C349.206 247.675 346.446 246.822 344.102 245.239C341.758 243.656 339.936 241.413 338.867 238.794C337.798 236.176 337.529 233.299 338.095 230.528C338.661 227.756 340.036 225.215 342.046 223.225C344.056 221.235 346.611 219.886 349.388 219.348C352.165 218.811 355.039 219.108 357.647 220.204C360.255 221.3 362.479 223.144 364.038 225.504C365.598 227.863 366.422 230.633 366.408 233.461C366.389 237.254 364.864 240.884 362.168 243.552C359.473 246.22 355.828 247.709 352.035 247.689V247.689Z" fill="#03D1AF"/>
<path d="M576.267 267.776C568.083 267.735 560.217 270.946 554.401 276.704C548.584 282.462 545.293 290.295 545.251 298.48C545.165 315.523 575.741 371.645 575.741 371.645C575.741 371.645 606.884 315.836 606.971 298.792C607.012 290.608 603.801 282.742 598.043 276.926C592.285 271.109 584.452 267.818 576.267 267.776V267.776ZM576.035 313.689C573.206 313.675 570.446 312.822 568.102 311.239C565.758 309.656 563.936 307.413 562.867 304.794C561.798 302.176 561.529 299.299 562.095 296.528C562.661 293.756 564.036 291.215 566.046 289.225C568.056 287.235 570.611 285.886 573.388 285.349C576.165 284.811 579.039 285.109 581.647 286.204C584.255 287.3 586.479 289.144 588.038 291.504C589.598 293.864 590.422 296.633 590.408 299.461C590.389 303.254 588.864 306.884 586.168 309.552C583.473 312.22 579.828 313.709 576.035 313.689V313.689Z" fill="#03D1AF"/>
<path d="M340.267 358.776C332.083 358.735 324.217 361.946 318.401 367.704C312.584 373.462 309.293 381.295 309.251 389.48C309.165 406.523 339.741 462.645 339.741 462.645C339.741 462.645 370.884 406.836 370.971 389.792C371.012 381.608 367.801 373.742 362.043 367.926C356.285 362.109 348.452 358.818 340.267 358.776V358.776ZM340.035 404.689C337.206 404.675 334.446 403.822 332.102 402.239C329.758 400.656 327.936 398.413 326.867 395.794C325.798 393.176 325.529 390.299 326.095 387.528C326.661 384.756 328.036 382.215 330.046 380.225C332.056 378.235 334.611 376.886 337.388 376.349C340.165 375.811 343.039 376.109 345.647 377.204C348.255 378.3 350.479 380.144 352.038 382.504C353.598 384.864 354.422 387.633 354.408 390.461C354.389 394.254 352.864 397.884 350.168 400.552C347.473 403.22 343.828 404.709 340.035 404.689V404.689Z" fill="#03D1AF"/>
<path d="M496.267 199.776C488.083 199.735 480.217 202.946 474.401 208.704C468.584 214.462 465.293 222.295 465.251 230.479C465.165 247.523 495.741 303.645 495.741 303.645C495.741 303.645 526.884 247.836 526.971 230.792C527.012 222.608 523.801 214.742 518.043 208.925C512.285 203.109 504.452 199.818 496.267 199.776V199.776ZM496.035 245.689C493.206 245.675 490.446 244.822 488.102 243.239C485.758 241.656 483.936 239.413 482.867 236.794C481.798 234.176 481.529 231.299 482.095 228.528C482.661 225.756 484.036 223.215 486.046 221.225C488.056 219.235 490.611 217.886 493.388 217.348C496.165 216.811 499.039 217.108 501.647 218.204C504.255 219.3 506.479 221.144 508.038 223.504C509.598 225.863 510.422 228.633 510.408 231.461C510.389 235.254 508.864 238.884 506.168 241.552C503.473 244.22 499.828 245.709 496.035 245.689V245.689Z" fill="#03D1AF"/>
</svg>
