<?xml version="1.0" encoding="UTF-8" standalone="no"?>
<!DOCTYPE svg PUBLIC "-//W3C//DTD SVG 1.1//EN" "http://www.w3.org/Graphics/SVG/1.1/DTD/svg11.dtd">
<svg width="100%" height="100%" viewBox="0 0 3149 894" version="1.1" xmlns="http://www.w3.org/2000/svg" xmlns:xlink="http://www.w3.org/1999/xlink" xml:space="preserve" xmlns:serif="http://www.serif.com/" style="fill-rule:evenodd;clip-rule:evenodd;stroke-linejoin:round;stroke-miterlimit:2;">
    <g transform="matrix(1000,0,0,1000,990,706)">
        <path d="M0.045,-0.001L0.145,-0.001L0.145,-0.495L0.045,-0.495L0.045,-0.001ZM0.096,-0.569C0.128,-0.569 0.153,-0.595 0.153,-0.627C0.153,-0.659 0.128,-0.684 0.096,-0.684C0.064,-0.684 0.038,-0.659 0.038,-0.627C0.038,-0.595 0.064,-0.569 0.096,-0.569Z" style="fill:rgb(51,51,51);fill-rule:nonzero;"/>
    </g>
    <g transform="matrix(1000,0,0,1000,1130,706)">
        <path d="M0.45,-0.397C0.44,-0.422 0.426,-0.443 0.407,-0.46C0.353,-0.509 0.283,-0.508 0.255,-0.505C0.217,-0.502 0.179,-0.486 0.145,-0.461L0.145,-0.495L0.045,-0.495L0.045,0L0.145,0L0.145,-0.228L0.145,-0.28C0.145,-0.307 0.158,-0.337 0.182,-0.362C0.206,-0.387 0.237,-0.403 0.265,-0.406C0.273,-0.406 0.314,-0.409 0.34,-0.386C0.357,-0.371 0.365,-0.345 0.365,-0.309L0.365,0L0.465,0L0.465,-0.309C0.465,-0.342 0.46,-0.372 0.45,-0.397Z" style="fill:rgb(51,51,51);fill-rule:nonzero;"/>
    </g>
    <g transform="matrix(1000,0,0,1000,1590,706)">
        <path d="M0.461,-0.091L0.461,-0.674L0.361,-0.674L0.361,-0.462C0.327,-0.487 0.288,-0.502 0.25,-0.505C0.208,-0.509 0.146,-0.499 0.101,-0.458C0.081,-0.441 0.067,-0.419 0.057,-0.394C0.046,-0.368 0.04,-0.338 0.04,-0.304L0.04,-0.171C0.04,-0.105 0.073,-0.044 0.127,-0.013C0.152,0.002 0.181,0.01 0.212,0.01L0.217,0.01C0.251,0.009 0.285,-0.001 0.32,-0.02C0.335,-0.029 0.362,-0.041 0.379,-0.031C0.39,-0.025 0.395,-0.009 0.395,0L0.495,0C0.495,-0.028 0.485,-0.063 0.461,-0.091ZM0.271,-0.108C0.246,-0.094 0.208,-0.081 0.177,-0.099C0.155,-0.112 0.14,-0.141 0.14,-0.171L0.14,-0.304C0.14,-0.341 0.15,-0.367 0.168,-0.384C0.19,-0.405 0.224,-0.407 0.241,-0.406C0.269,-0.403 0.3,-0.387 0.324,-0.363C0.347,-0.339 0.361,-0.31 0.361,-0.285L0.361,-0.135L0.356,-0.135C0.329,-0.133 0.301,-0.124 0.271,-0.108Z" style="fill:rgb(51,51,51);fill-rule:nonzero;"/>
    </g>
    <g transform="matrix(1000,0,0,1000,2061,706)">
        <path d="M0.045,-0.001L0.145,-0.001L0.145,-0.495L0.045,-0.495L0.045,-0.001ZM0.096,-0.569C0.128,-0.569 0.153,-0.595 0.153,-0.627C0.153,-0.659 0.128,-0.684 0.096,-0.684C0.064,-0.684 0.038,-0.659 0.038,-0.627C0.038,-0.595 0.064,-0.569 0.096,-0.569Z" style="fill:rgb(51,51,51);fill-rule:nonzero;"/>
    </g>
    <g transform="matrix(1000,0,0,1000,2201,706)">
        <path d="M0.49,-0.058C0.461,-0.081 0.424,-0.094 0.385,-0.094L0.25,-0.094L0.244,-0.094C0.219,-0.095 0.189,-0.102 0.174,-0.128C0.168,-0.14 0.166,-0.154 0.168,-0.169C0.196,-0.157 0.226,-0.151 0.257,-0.151L0.261,-0.151C0.393,-0.155 0.506,-0.274 0.462,-0.398C0.493,-0.427 0.507,-0.469 0.507,-0.503L0.407,-0.503C0.407,-0.493 0.401,-0.475 0.391,-0.469C0.38,-0.463 0.358,-0.468 0.332,-0.483C0.266,-0.52 0.213,-0.517 0.18,-0.508C0.137,-0.497 0.101,-0.469 0.077,-0.429C0.055,-0.39 0.047,-0.343 0.055,-0.3C0.06,-0.275 0.07,-0.253 0.084,-0.233C0.074,-0.212 0.068,-0.189 0.067,-0.166C0.066,-0.136 0.072,-0.106 0.087,-0.08C0.089,-0.076 0.091,-0.072 0.094,-0.068C0.089,-0.065 0.085,-0.062 0.081,-0.058C0.047,-0.032 0.029,0.006 0.029,0.047C0.029,0.088 0.047,0.126 0.081,0.152C0.11,0.175 0.147,0.188 0.186,0.188L0.385,0.188C0.424,0.188 0.461,0.175 0.49,0.152C0.524,0.126 0.542,0.088 0.542,0.047C0.542,0.006 0.524,-0.032 0.49,-0.058ZM0.164,-0.378C0.177,-0.402 0.198,-0.414 0.223,-0.414C0.241,-0.414 0.261,-0.408 0.282,-0.396C0.315,-0.378 0.343,-0.369 0.366,-0.367C0.37,-0.361 0.372,-0.349 0.372,-0.339C0.372,-0.312 0.354,-0.286 0.324,-0.269C0.291,-0.25 0.239,-0.24 0.19,-0.269C0.147,-0.295 0.144,-0.345 0.164,-0.378ZM0.428,0.074C0.417,0.083 0.401,0.088 0.385,0.088L0.186,0.088C0.17,0.088 0.154,0.083 0.143,0.074C0.129,0.063 0.129,0.051 0.129,0.047C0.129,0.043 0.129,0.031 0.143,0.02C0.154,0.011 0.17,0.006 0.186,0.006L0.385,0.006C0.401,0.006 0.417,0.011 0.428,0.02C0.442,0.031 0.442,0.043 0.442,0.047C0.442,0.051 0.442,0.063 0.428,0.074Z" style="fill:rgb(51,51,51);fill-rule:nonzero;"/>
    </g>
    <g transform="matrix(1000,0,0,1000,2660,706)">
        <path d="M0.358,-0.488C0.329,-0.501 0.295,-0.507 0.258,-0.507C0.221,-0.507 0.187,-0.501 0.158,-0.488C0.128,-0.476 0.103,-0.457 0.082,-0.432C0.045,-0.387 0.027,-0.325 0.027,-0.248C0.027,-0.171 0.045,-0.109 0.082,-0.064C0.103,-0.04 0.128,-0.021 0.158,-0.008C0.187,0.004 0.221,0.011 0.258,0.011C0.295,0.011 0.329,0.004 0.358,-0.008C0.388,-0.021 0.413,-0.04 0.434,-0.064C0.471,-0.109 0.489,-0.171 0.489,-0.248C0.489,-0.325 0.471,-0.387 0.434,-0.432C0.413,-0.457 0.388,-0.476 0.358,-0.488ZM0.356,-0.128C0.335,-0.102 0.303,-0.089 0.258,-0.089C0.213,-0.089 0.181,-0.102 0.16,-0.128C0.138,-0.154 0.127,-0.196 0.127,-0.248C0.127,-0.301 0.138,-0.342 0.16,-0.368C0.181,-0.394 0.213,-0.407 0.258,-0.407C0.303,-0.407 0.335,-0.394 0.356,-0.368C0.378,-0.342 0.389,-0.301 0.389,-0.248C0.389,-0.196 0.378,-0.154 0.356,-0.128Z" style="fill:rgb(51,51,51);fill-rule:nonzero;"/>
    </g>
    <g transform="matrix(1,0,0,1,0,-227.931)">
        <path d="M460.345,236.783L618.27,328.028C638.68,339.82 651.252,361.603 651.252,385.175L651.252,766.598C675.703,776.264 693,800.112 693,828C693,864.451 663.451,894 627,894C590.549,894 561,864.451 561,828C561,800.639 577.649,777.166 601.37,767.161L601.369,380.271L427.385,280.012L253.879,380.271L253.879,514.109L202.287,544.195L202.287,385.495C202.287,361.886 214.897,340.076 235.357,328.297L394.396,236.733C414.812,224.979 439.946,224.998 460.345,236.783Z" style="fill:rgb(3,209,175);"/>
    </g>
    <g transform="matrix(-0.5,-0.866025,-0.866025,0.5,736.652,613.514)">
        <path d="M300.057,677.078L457.983,585.833C478.393,574.041 490.965,552.258 490.965,528.686L490.965,147.263C515.416,137.597 532.713,113.749 532.713,85.861C532.713,49.411 503.164,19.861 466.713,19.861C430.262,19.861 400.713,49.411 400.713,85.861C400.713,113.222 417.362,136.695 441.083,146.7L441.082,533.59L267.098,633.85L93.592,533.59L93.592,399.752L42,369.666L42,528.367C42,551.975 54.61,573.785 75.069,585.565L234.109,677.128C254.525,688.883 279.659,688.864 300.057,677.078Z" style="fill:rgb(3,209,175);"/>
    </g>
    <g transform="matrix(-0.5,0.866025,0.866025,0.5,547.229,-57.7346)">
        <path d="M561.057,642.078L718.983,550.833C739.393,539.041 751.965,517.258 751.965,493.686L751.965,112.263C776.416,102.597 793.713,78.749 793.713,50.861C793.713,14.411 764.164,-15.139 727.713,-15.139C691.262,-15.139 661.713,14.411 661.713,50.861C661.713,78.222 678.362,101.695 702.083,111.7L702.082,498.59L528.098,598.85L354.592,498.59L354.592,364.752L303,334.666L303,493.367C303,516.975 315.61,538.785 336.069,550.565L495.109,642.128C515.525,653.883 540.659,653.864 561.057,642.078Z" style="fill:rgb(3,209,175);"/>
    </g>
    <g transform="matrix(1,0,0,1,0,138.381)">
        <path d="M318.577,250.052L266.92,282.417L400.205,360.689L400.205,491.183L454.787,522.382L454.787,360.689L565.514,297.548L565.514,233.237L428.937,312.689L318.577,250.052Z" style="fill:rgb(0,213,173);"/>
    </g>
</svg>
